# xmcd CD database file
# Copyright (C) 1993-1998 Ti Kan
#
# Track frame offsets:
#	150
#	16377
#	33905
#	61505
#	78729
#	92975
#	110902
#	130107
#	149535
#	168780
#	192290
#	210480
#	227562
#
# Disc length: 3285 seconds
#
# Revision: 1
# Processed by: cddbd v1.4b41PL1 Copyright (c) Steve Scherf et al.
# Submitted via: CDValet v3.31 - Copyright (c) 1997 Greg Leichner
#
DISCID=ab0cd30d
DTITLE=Mike Schau and Highway 61 - Don't Lose Sight
DYEAR=1900
DGENRE=
TTITLE0=Done Cryin'
TTITLE1=I Sing The Blues
TTITLE2=Tears Come Rollin'
TTITLE3=Rain Kept Pourin'
TTITLE4=Moonshadow Blues
TTITLE5=Movin' Out
TTITLE6=Live Your Own Life
TTITLE7=Pipeline
TTITLE8=Good Thang
TTITLE9=Don't Lose Sight
TTITLE10=Aunti-Freeze
TTITLE11=Time To Play
TTITLE12=The Thurston Howl
EXTD=
EXTT0=
EXTT1=
EXTT2=
EXTT3=
EXTT4=
EXTT5=
EXTT6=
EXTT7=
EXTT8=
EXTT9=
EXTT10=
EXTT11=
EXTT12=
PLAYORDER=
